%FSTAX24Y24*%
%MOIN*%
%IN tetrassi.bottomsoldermask.ger *%
%AMRECT*21,1,$1,$2,0.0,0.0,$3*%
%ADD10C,0.0800*%
%ADD11C,0.0890*%
%ADD12C,0.1000*%
%ADD13R,0.0800X0.0800*%
%ADD14RECT,0.0800X0.0800X152.0000*%
%ADD15RECT,0.0800X0.0800X332.0000*%
%ADD16R,0.1700X0.2200*%
D10*X015976Y015336D03*X014983Y015458D03*X013991Y01558D03*
X012998Y015702D03*X012633Y012724D03*X013625Y012602D03*X014618Y01248D03*
X01561Y012358D03*X064143Y084907D03*X065136Y084785D03*X066128Y084663D03*
X067121Y084541D03*X067486Y087519D03*X066494Y087641D03*
X065501Y087762D03*X064509Y087884D03*X050619Y0626D03*X04869Y060302D03*
X068543Y040913D03*X071Y042634D03*X0295Y037643D03*X031429Y039941D03*
X011576Y05933D03*X009119Y057609D03*X049335Y064402D03*X048458Y061534D03*
X069156Y038863D03*X071084Y041161D03*X030784Y03584D03*X031661Y038709D03*
X010963Y06138D03*X009035Y059082D03*X047752Y057288D03*X048273Y054334D03*
X071295Y045917D03*X071556Y048905D03*X032367Y042954D03*
X031846Y045909D03*X008824Y054326D03*X008563Y051337D03*
X040556Y035309D03*Y038309D03*X044149Y058921D03*Y055921D03*
X044275Y054472D03*Y051472D03*X042592Y054965D03*Y051965D03*
X04053Y04034D03*Y04334D03*X039074Y043148D03*X038553Y046102D03*
X045556Y05142D03*X046076Y048465D03*X044974Y041181D03*X046Y044D03*
X0395Y054D03*Y051D03*X041667Y034383D03*Y037383D03*X04255Y059438D03*
Y056438D03*X041855Y039709D03*Y042709D03*X049209Y057923D03*
X049157Y054923D03*X03091Y04232D03*X030962Y045319D03*X072457Y066905D03*
X072978Y063951D03*X046632Y036573D03*X047408Y039471D03*
X007662Y033337D03*X007141Y036292D03*X033487Y06367D03*X032711Y060772D03*
X071096Y067388D03*X071253Y064393D03*X047768Y036152D03*
X048794Y038971D03*X009023Y032854D03*X008866Y03585D03*X032351Y06409D03*
X031325Y061271D03*X069802Y076968D03*X068875Y074115D03*
X010317Y023275D03*X011244Y026128D03*X048349Y024957D03*X04861Y027946D03*
X03177Y075286D03*X031509Y072297D03*X0355Y052598D03*X037Y05D03*
Y052848D03*X0385Y05025D03*X051346Y032701D03*Y035701D03*
X028773Y067541D03*Y064541D03*X049915Y031595D03*Y034595D03*
X030204Y068647D03*Y065647D03*X073062Y06132D03*Y05832D03*
X049719Y044762D03*X049198Y047716D03*X007057Y038923D03*Y041923D03*
X0304Y055481D03*X030921Y052526D03*X071884Y061627D03*Y058627D03*
X008235Y038616D03*Y041616D03*X046674Y064224D03*X046398Y065185D03*
X046123Y066147D03*X072179Y038289D03*Y037289D03*Y036289D03*
X033445Y036018D03*X033721Y035057D03*X033996Y034096D03*X00794Y061954D03*
Y062954D03*Y063954D03*X071163Y07013D03*X071505Y06919D03*
X071847Y068251D03*X048489Y033235D03*X048147Y034174D03*
X047805Y035114D03*X008956Y030113D03*X008614Y031052D03*
X008272Y031992D03*X03163Y067008D03*X031972Y066068D03*X032314Y065129D03*
X067719Y079828D03*X067823Y078834D03*X067928Y077839D03*X0124Y020414D03*
X012296Y021409D03*X012191Y022403D03*X067142Y027393D03*
X066202Y027735D03*X065263Y028077D03*X012977Y07285D03*X013917Y072508D03*
X014856Y072166D03*X063088Y024999D03*X062665Y025906D03*
X062243Y026812D03*X017031Y075243D03*X017454Y074337D03*
X017876Y073431D03*X060516Y025228D03*X060016Y026094D03*X059516Y02696D03*
X019603Y075015D03*X020103Y074149D03*X020603Y073283D03*
X056874Y026118D03*X055975Y026557D03*X055076Y026995D03*
X023245Y074124D03*X024144Y073686D03*X025043Y073248D03*
X051135Y023926D03*X050369Y024569D03*X049603Y025212D03*
X028984Y076316D03*X02975Y075674D03*X030516Y075031D03*X047125Y071433D03*
X046625Y072299D03*X046125Y073165D03*X032994Y028809D03*
X033494Y027943D03*X033994Y027077D03*X071163Y030569D03*
X071505Y029629D03*X071847Y028689D03*X008956Y069674D03*
X008614Y070614D03*X008272Y071553D03*X0478Y066485D03*X047852Y065487D03*
X047905Y064488D03*X070579Y036499D03*Y037499D03*Y038499D03*
X032319Y033757D03*X032266Y034756D03*X032214Y035754D03*X00954Y063743D03*
Y062743D03*Y061743D03*X075419Y068012D03*X075246Y068997D03*
X075072Y069982D03*X043359Y032161D03*X043859Y031295D03*
X044359Y030429D03*X0047Y032231D03*X004873Y031246D03*X005047Y030261D03*
X03676Y068082D03*X03626Y068948D03*X03576Y069814D03*X071084Y077902D03*
X071032Y078901D03*X07098Y0799D03*X009035Y02234D03*X009087Y021342D03*
X009139Y020343D03*X046216Y022667D03*X046716Y021801D03*
X047216Y020935D03*X033903Y077576D03*X033403Y078442D03*
X032903Y079308D03*X048572Y074638D03*X048865Y073682D03*
X049157Y072726D03*X031547Y025604D03*X031254Y026561D03*
X030962Y027517D03*X056733Y084173D03*X055826Y084596D03*X05492Y085018D03*
X061591Y017419D03*X062457Y016919D03*X063323Y016419D03*
X023386Y016069D03*X024293Y015647D03*X025199Y015224D03*
X018528Y082824D03*X017662Y083324D03*X016796Y083824D03*
X055554Y092318D03*Y091318D03*Y090318D03*X06182Y010042D03*
X061994Y011027D03*X062167Y012012D03*X024565Y007925D03*Y008925D03*
Y009925D03*X018299Y090201D03*X018125Y089216D03*X017952Y088231D03*
X053197Y091981D03*Y090981D03*Y089981D03*X064765Y00996D03*
X064852Y010956D03*X06494Y011953D03*X026921Y008261D03*Y009261D03*
Y010261D03*X015354Y090282D03*X015266Y089286D03*X015179Y08829D03*
X04921Y090604D03*X049383Y089619D03*X049557Y088634D03*X069569Y011079D03*
Y012079D03*Y013079D03*X030909Y009639D03*X030736Y010623D03*
X030562Y011608D03*X01055Y089164D03*Y088164D03*Y087164D03*
X043253Y088033D03*X043812Y087203D03*X044371Y086374D03*
X077211Y013751D03*X076869Y014691D03*X076527Y015631D03*X036866Y01221D03*
X036307Y013039D03*X035748Y013868D03*X002908Y086491D03*X00325Y085551D03*
X003592Y084612D03*X07049Y028047D03*X06999Y028914D03*X06949Y02978D03*
X009629Y072195D03*X010129Y071329D03*X010629Y070463D03*
X045664Y063425D03*X043366Y061496D03*X074047Y038727D03*
X076345Y040656D03*X034455Y036818D03*X036753Y038746D03*
X006072Y061515D03*X003774Y059587D03*X044586Y067171D03*Y064171D03*
X073467Y034891D03*X074493Y03771D03*X035533Y033072D03*Y036072D03*
X006652Y065352D03*X005626Y062533D03*X050615Y067676D03*X05193Y064979D03*
X069506Y034721D03*X06848Y037541D03*X029504Y032567D03*X028189Y035263D03*
X010613Y065521D03*X011639Y062702D03*X048947Y067633D03*
X050667Y065176D03*X068243Y034784D03*X067217Y037604D03*X031172Y03261D03*
X029452Y035067D03*X011876Y065458D03*X012902Y062639D03*
X067785Y069926D03*X068811Y067107D03*X012334Y030316D03*
X011308Y033136D03*X068717Y065773D03*X066749Y063509D03*
X051437Y037095D03*X053366Y039393D03*X011402Y03447D03*X01337Y036734D03*
X028682Y063148D03*X026753Y06085D03*X060375Y062756D03*X063329Y062235D03*
X019744Y037487D03*X01679Y038008D03*X05515Y036273D03*X057869Y037541D03*
X024969Y063969D03*X02225Y062701D03*X064664Y069841D03*X067465Y070916D03*
X015362Y030429D03*X012561Y029354D03*X053088Y06274D03*X05267Y059769D03*
X067044Y04056D03*Y04356D03*X027031Y037503D03*X027449Y040473D03*
X013075Y059683D03*Y056683D03*X054511Y056667D03*X057465Y056146D03*
X064982Y047179D03*X062027Y046658D03*X025504Y043981D03*
X022506Y043876D03*X015137Y053064D03*X018092Y053584D03*
X061826Y057685D03*X064645Y058711D03*X057027Y045075D03*
X054763Y043107D03*X018293Y042558D03*X015474Y041532D03*
X023092Y055168D03*X025356Y057136D03*X051382Y068482D03*
X054006Y067028D03*X067465Y031776D03*X064465D03*X028737Y031761D03*
X026113Y033215D03*X012654Y068467D03*X015654D03*X047175Y062589D03*
X047644Y059625D03*X073067Y039671D03*X074788Y042129D03*
X032944Y037654D03*X032475Y040617D03*X007052Y060571D03*
X005331Y058114D03*X078029Y068896D03*X077559Y071859D03*
X042817Y030502D03*X044317Y027903D03*X00209Y031347D03*X00256Y028384D03*
X037302Y069741D03*X035802Y072339D03*X07291Y078745D03*X071884Y081564D03*
X007209Y021498D03*X008235Y018679D03*X045166Y021229D03*
X046887Y018772D03*X034953Y079014D03*X033232Y081471D03*
X051253Y031465D03*X054208Y031986D03*X028866Y068778D03*
X025911Y068257D03*X077095Y064367D03*X075167Y066665D03*
X042901Y036852D03*X044401Y034254D03*X003024Y035876D03*
X004952Y033577D03*X037218Y063391D03*X035718Y065989D03*X074493Y07544D03*
X072565Y077738D03*X005626Y024802D03*X007554Y022504D03*X07462Y074556D03*
X072691Y072258D03*X046927Y028408D03*X045901Y025589D03*
X005499Y025686D03*X007428Y027984D03*X033192Y071834D03*
X034218Y074653D03*X050403Y027045D03*X052524Y029166D03*
X029716Y073198D03*X027595Y071077D03*X05265Y035785D03*Y032785D03*
X027469Y064457D03*Y067457D03*X067454Y076962D03*X066728Y074051D03*
X012665Y02328D03*X013391Y026191D03*X067422Y066732D03*X066696Y069643D03*
X012697Y033511D03*X013423Y0306D03*X073374Y067765D03*Y070765D03*
X006745Y032478D03*Y029478D03*X070158Y068222D03*X069433Y071133D03*
X009961Y03202D03*X010686Y029109D03*X046111Y034426D03*X047137Y031607D03*
X034008Y065816D03*X032982Y068636D03*X044485Y023812D03*
X047474Y024074D03*X035634Y076431D03*X032645Y076169D03*X07685Y067717D03*
X076589Y070706D03*X045477Y032779D03*X046253Y029881D03*
X003269Y032525D03*X00353Y029537D03*X034642Y067463D03*X033866Y070361D03*
X06938Y079733D03*X067296Y081891D03*X010739Y02051D03*X012823Y018352D03*
X051198Y022222D03*X048244Y022743D03*X028921Y078021D03*X031875Y0775D03*
X045517Y070832D03*X043548Y073096D03*X072726Y027693D03*X07568Y027172D03*
X034602Y029411D03*X03657Y027147D03*X007393Y07255D03*X004439Y073071D03*
X045033Y069569D03*X042875Y071653D03*X035086Y030673D03*
X037244Y028589D03*X070964Y026786D03*X073862Y026009D03*
X009155Y073457D03*X006257Y074233D03*X052398Y051139D03*Y054139D03*
X027721Y049103D03*Y046103D03*X049662Y071631D03*X046989Y070269D03*
X068702Y030394D03*X071Y032323D03*X030457Y028611D03*X03313Y029973D03*
X011417Y069848D03*X009119Y06792D03*X076422Y034579D03*X074493Y03228D03*
X073483Y033248D03*X075411Y035546D03*X003697Y065664D03*
X005626Y067962D03*X006636Y066994D03*X004708Y064696D03*X06753Y029959D03*
X068307Y027062D03*X012589Y070283D03*X011812Y073181D03*
X066791Y034595D03*X06627Y03755D03*X013328Y065647D03*X013849Y062693D03*
X053035Y066363D03*X05435Y063666D03*X027084Y03388D03*X025769Y036576D03*
X050369Y076303D03*X05063Y073315D03*X02975Y023939D03*X029489Y026928D03*
X041681Y071173D03*X043875Y069127D03*X038438Y029069D03*
X036244Y031115D03*X043384Y067968D03*X04307Y064985D03*X036735Y032274D03*
X037049Y035258D03*X047972Y072468D03*X047044Y075321D03*
X074103Y030934D03*X077103D03*X032147Y027775D03*X033074Y024922D03*
X006016Y069309D03*X003016D03*X064898Y075125D03*X066443Y077696D03*
X05244Y022727D03*X05394Y025325D03*X015221Y025118D03*X013676Y022546D03*
X027679Y077516D03*X026179Y074918D03*X065686Y064087D03*
X062732Y064608D03*X054207Y03909D03*X057196Y039351D03*X014433Y036156D03*
X017387Y035635D03*X025912Y061153D03*X022923Y060892D03*
X057196Y060352D03*X054196Y060405D03*X062487Y041497D03*X065487D03*
X022923Y03989D03*X025923Y039838D03*X017632Y058745D03*X014632D03*
X056312Y058332D03*X043433Y082953D03*X017051Y033765D03*
X062309Y075125D03*X062984Y078048D03*X056485Y023636D03*
X058206Y026094D03*X01781Y025118D03*X017135Y022195D03*X023634Y076606D03*
X021913Y074149D03*X05705Y075634D03*X057364Y078618D03*X063761Y023274D03*
X064282Y026228D03*X023069Y024608D03*X022755Y021625D03*
X016358Y076969D03*X015837Y074014D03*X054628Y074199D03*X055046Y07717D03*
X067021Y023322D03*X066244Y02622D03*X025491Y026044D03*X025073Y023073D03*
X013098Y07692D03*X013875Y074023D03*X04558Y086193D03*X07584Y016624D03*
X034539Y014049D03*X004279Y083618D03*X050315Y087751D03*X067886Y01372D03*
X029804Y012492D03*X012233Y086522D03*X021386Y050473D03*X020386D03*
X019386D03*X018386D03*X017386D03*X016386D03*X015386D03*Y047473D03*
X016386D03*X017386D03*X018386D03*X019386D03*X020386D03*X021386D03*
X058733Y049769D03*X059733D03*X060733D03*X061733D03*X062733D03*
X063733D03*X064733D03*Y052769D03*X063733D03*X062733D03*X061733D03*
X060733D03*X059733D03*X058733D03*X047263Y083879D03*X071652Y017298D03*
X032856Y016364D03*X008467Y082945D03*X049283Y084342D03*X06919Y016729D03*
X030836Y015901D03*X010929Y083513D03*X041821Y050587D03*
X041479Y049648D03*X041137Y048708D03*X040795Y047768D03*
X040452Y046828D03*X04011Y045889D03*X039768Y044949D03*X042588Y043923D03*
X04293Y044863D03*X043272Y045802D03*X043614Y046742D03*X043956Y047682D03*
X044298Y048622D03*X04464Y049561D03*X053901Y017481D03*X052909Y017603D03*
X051916Y017725D03*X050924Y017846D03*X050558Y014869D03*
X051551Y014747D03*X052543Y014625D03*X053536Y014503D03*
X026218Y082762D03*X02721Y08264D03*X028203Y082518D03*X029195Y082396D03*
X029561Y085374D03*X028568Y085496D03*X027576Y085618D03*
X026583Y085739D03*X060839Y065862D03*Y066862D03*Y067862D03*Y068862D03*
Y069862D03*Y070862D03*Y071862D03*Y072862D03*X057839D03*Y071862D03*
Y070862D03*Y069862D03*Y068862D03*Y067862D03*Y066862D03*Y065862D03*
X057936Y035774D03*Y034774D03*Y033774D03*Y032774D03*Y031774D03*
Y030774D03*Y029774D03*Y028774D03*X060936D03*Y029774D03*Y030774D03*
Y031774D03*Y032774D03*Y033774D03*Y034774D03*Y035774D03*
X01928Y034381D03*Y033381D03*Y032381D03*Y031381D03*Y030381D03*
Y029381D03*Y028381D03*Y027381D03*X02228D03*Y028381D03*Y029381D03*
Y030381D03*Y031381D03*Y032381D03*Y033381D03*Y034381D03*
X022183Y064469D03*Y065469D03*Y066469D03*Y067469D03*Y068469D03*
Y069469D03*Y070469D03*Y071469D03*X019183D03*Y070469D03*Y069469D03*
Y068469D03*Y067469D03*Y066469D03*Y065469D03*Y064469D03*D16*
X07205Y09795D03*X07795D03*D12*X075Y095D03*X073437Y095448D03*X076563D03*
D16*X00305Y09795D03*X00895D03*D12*X006Y095D03*X004437Y095448D03*
X007563D03*D16*X07795Y00205D03*X07205D03*D12*X075Y005D03*
X076563Y004552D03*X073437D03*D16*X00795Y00205D03*X00205D03*D12*
X005Y005D03*X006563Y004552D03*X003437D03*D10*X060731Y089065D03*
Y090065D03*Y091065D03*X057154Y013163D03*Y012163D03*Y011163D03*
X019388Y011177D03*Y010177D03*Y009177D03*X022965Y08708D03*Y08808D03*
Y08908D03*X052271Y078179D03*X051801Y079062D03*X051332Y079945D03*
X0683Y024534D03*X068559Y023569D03*X068818Y022603D03*X027848Y022064D03*
X028318Y021181D03*X028787Y020298D03*X011819Y075708D03*X01156Y076674D03*
X011301Y07764D03*X048301Y076484D03*X047895Y077397D03*X047488Y078311D03*
X070863Y025159D03*X071037Y024175D03*X071211Y02319D03*X031818Y023759D03*
X032224Y022845D03*X032631Y021932D03*X009256Y075083D03*
X009082Y076068D03*X008908Y077053D03*X049783Y079772D03*
X049283Y080638D03*X048783Y081504D03*X067849Y020941D03*
X068349Y020075D03*X068849Y019209D03*X030336Y020471D03*
X030836Y019605D03*X031336Y018739D03*X01227Y079301D03*X01177Y080167D03*
X01127Y081033D03*X046253Y079291D03*X045487Y079934D03*X044721Y080577D03*
X071244Y021854D03*X07201Y021212D03*X072776Y020569D03*X033866Y020951D03*
X034632Y020309D03*X035398Y019666D03*X008875Y078388D03*
X008109Y079031D03*X007343Y079674D03*D13*X050229Y0506D03*D10*Y0516D03*
D13*X02989Y049642D03*D10*Y048642D03*D11*X05446Y08148D03*
X022432Y018434D03*X061278Y08169D03*X06054Y019669D03*X023947Y037836D03*
X016919Y080175D03*X057911Y081901D03*X025925Y018981D03*
X064477Y039014D03*X023042Y080049D03*D10*X076766Y038509D03*
X003353Y061733D03*X063214Y034974D03*X074493Y029166D03*
X017494Y056178D03*X005626Y071077D03*X004552Y079031D03*
X062877Y070895D03*X024999Y029166D03*D14*X068494Y054596D03*D10*
X067612Y055065D03*D15*X011624Y045647D03*D10*X012507Y045177D03*D11*
X055596Y062204D03*X019191Y018434D03*D10*X049244Y020511D03*
X030875Y079731D03*X058784Y058441D03*X05978Y058528D03*X060776Y058615D03*
X061772Y058703D03*X061511Y061691D03*X060514Y061604D03*
X059518Y061517D03*X058522Y06143D03*X059792Y043248D03*X058792D03*
X057792D03*X056792D03*Y040248D03*X057792D03*X058792D03*X059792D03*
X021335Y041802D03*X020339Y041714D03*X019343Y041627D03*X018347Y04154D03*
X018608Y038551D03*X019605Y038639D03*X020601Y038726D03*
X021597Y038813D03*X020327Y056994D03*X021327D03*X022327D03*X023327D03*
Y059994D03*X022327D03*X021327D03*X020327D03*X063719Y044233D03*
X016414Y065339D03*X075588Y02159D03*X027889Y050749D03*X024935Y050228D03*
X052229Y049494D03*X055184Y050015D03*X056126Y048515D03*X059126D03*
X023993Y051727D03*X020993D03*X056903Y052847D03*X057164Y049858D03*
X023216Y047396D03*X022955Y050384D03*X060108Y053928D03*X063108D03*
X020011Y046315D03*X017011D03*X066791Y056817D03*X063837Y057338D03*
X013328Y043426D03*X016282Y042905D03*X066665Y058395D03*X06962Y057874D03*
X013454Y041847D03*X010499Y042368D03*X065444Y055509D03*X062444D03*
X014675Y044734D03*X017675D03*X043854Y026262D03*X036265Y073981D03*D11*
X06342Y019669D03*X019949Y080428D03*X057415Y019669D03*X015909Y061404D03*
D10*X063172Y030387D03*X024438Y070066D03*X055596Y030344D03*
X017045Y069632D03*X070989Y0837D03*X071355Y086678D03*X00913Y016542D03*
X008764Y013565D03*X032896Y082453D03*X033261Y085431D03*
X047223Y017789D03*X046858Y014812D03*X06991Y087644D03*X067903Y089873D03*
X010209Y012599D03*X012216Y010369D03*X031508Y086172D03*X0295Y088402D03*
X048611Y01407D03*X050619Y011841D03*X055386Y067886D03*X056886Y065288D03*
X058795Y037331D03*X061795D03*X024733Y032357D03*X023233Y034955D03*
X021324Y062912D03*X018324D03*X063301Y066612D03*X037625Y017929D03*
X024368Y041834D03*X055304Y071242D03*X016666Y03005D03*X062435Y087207D03*
X059457Y087572D03*X024228Y085384D03*X02125Y08575D03*X072599Y083205D03*
X00752Y017037D03*X044773Y074488D03*X035346Y025755D03*X042802Y063172D03*
X037317Y037071D03*X0745Y093135D03*X005Y007D03*X006Y093D03*X075Y007D03*
X075125Y071758D03*X004994Y028485D03*X060243Y057128D03*Y055628D03*
X019876Y043114D03*Y044614D03*X059048Y046617D03*Y045117D03*
X021071Y053626D03*Y055126D03*X055702Y037786D03*X057112Y038299D03*
X024417Y062457D03*X023007Y061944D03*X03875Y090778D03*Y087778D03*
X062993Y063442D03*X061504Y063624D03*X017126Y036801D03*
X018615Y036618D03*X0519Y07137D03*X053534Y068854D03*X055527Y032334D03*
X057027Y034932D03*X028219Y028873D03*X026585Y031389D03*
X024592Y067909D03*X023092Y065311D03*X051808Y073231D03*
X051495Y076214D03*X056396Y035563D03*X053798Y034063D03*
X028311Y027012D03*X028624Y024028D03*X023723Y064679D03*
X026321Y066179D03*X056293Y063874D03*X059289Y064031D03*X023695Y03611D03*
X020711Y036424D03*X060978Y041439D03*X062246Y03872D03*X019141Y058804D03*
X017873Y061523D03*X051993Y063554D03*X067281Y039298D03*
X028126Y036689D03*X012838Y060945D03*X069106Y084115D03*X06935Y0861D03*
D12*X039252Y063844D03*X038731Y06089D03*D10*X037521Y058454D03*
X037Y0555D03*X040908Y05909D03*X038862Y056896D03*X037696Y044776D03*
X034877Y045802D03*X047046Y049286D03*X05Y048765D03*X04142Y056173D03*
X045309Y055247D03*X039709Y039456D03*X042991Y039204D03*D12*
X032346Y050309D03*X033846Y047711D03*X054797Y047642D03*
X051842Y048163D03*D10*X038846Y047222D03*X037346D03*X04593Y047332D03*
X047407Y047593D03*X069906Y066329D03*X049915Y036489D03*
X010213Y033914D03*X030204Y063754D03*X054839Y053862D03*X02528Y046381D03*
X041Y052D03*X044Y043D03*X052987Y055606D03*Y056606D03*Y057606D03*
X066602Y047979D03*Y046979D03*Y045979D03*X027062Y045023D03*Y044023D03*
Y043023D03*X013517Y052264D03*Y053264D03*Y054264D03*X03095Y08205D03*
X031194Y084035D03*X011094Y016335D03*X01085Y01435D03*X049144Y018035D03*
X0489Y01605D03*X050932Y055607D03*X050967Y056606D03*X051002Y057606D03*
X069232Y047464D03*Y046464D03*Y045464D03*X029187Y044635D03*
X029152Y043636D03*X029117Y042637D03*X010886Y052779D03*Y053779D03*
Y054779D03*X06877Y06334D03*X068154Y062552D03*X067538Y061764D03*
X050619Y0393D03*X051261Y040066D03*X051904Y040832D03*X011349Y036902D03*
X011965Y03769D03*X012581Y038478D03*X0295Y060942D03*X028857Y060176D03*
X028215Y05941D03*X068433Y073041D03*X067451Y072851D03*X06647Y07266D03*
X011686Y027201D03*X012668Y027392D03*X013649Y027583D03*
X049971Y029324D03*X050911Y029666D03*X051851Y030008D03*
X030148Y070919D03*X029208Y070577D03*X028268Y070235D03*
X072369Y062613D03*X073357Y062457D03*X074345Y0623D03*X04855Y040829D03*
X047684Y041329D03*X046818Y041829D03*X00775Y03763D03*X006762Y037786D03*
X005774Y037942D03*X031569Y059414D03*X032435Y058914D03*
X033301Y058414D03*X070123Y074011D03*X071084Y073736D03*X072046Y07346D03*
X009996Y026231D03*X009035Y026507D03*X008073Y026782D03*X04918Y029459D03*
X048273Y029881D03*X047367Y030304D03*X030939Y070784D03*
X031846Y070361D03*X032752Y069938D03*X04595Y061917D03*X045496Y061026D03*
X045042Y060135D03*X072468Y041063D03*X07281Y042002D03*X073152Y042942D03*
X034169Y038326D03*X034623Y039217D03*X035077Y040108D03*X007651Y05918D03*
X007309Y05824D03*X006967Y0573D03*X050198Y060271D03*X05054Y059331D03*
X050882Y058391D03*X069238Y042704D03*X068896Y043644D03*
X068554Y044584D03*X029921Y039972D03*X029579Y040911D03*
X029237Y041851D03*X010881Y057538D03*X011223Y056599D03*
X011565Y055659D03*X048749Y0688D03*X049578Y069359D03*X050407Y069918D03*
X03137Y031443D03*X030541Y030884D03*X029712Y030325D03*X069275Y033038D03*
X068335Y03338D03*X067395Y033722D03*X010844Y067205D03*X011784Y066863D03*
X012724Y066521D03*X070285Y059595D03*X070111Y060579D03*
X069937Y061564D03*X050341Y043363D03*X049999Y042423D03*
X049657Y041484D03*X009834Y040648D03*X010008Y039663D03*
X010182Y038678D03*X029778Y05688D03*X03012Y057819D03*X030462Y058759D03*
X052774Y075616D03*X052861Y07462D03*X052948Y073623D03*X027345Y024627D03*
X027258Y025623D03*X027171Y026619D03*X055694Y074244D03*
X056691Y074157D03*X057687Y074069D03*X024424Y025999D03*
X023428Y026086D03*X022432Y026173D03*X06544Y073688D03*X064456Y073862D03*
X063471Y074036D03*X014503Y026352D03*X015488Y026178D03*
X016473Y026004D03*X060658Y076069D03*X060042Y075281D03*
X059426Y074493D03*X019461Y024173D03*X020077Y024961D03*
X020693Y025749D03*X067179Y059457D03*X066413Y0601D03*X065647Y060742D03*
X051842Y043697D03*X052608Y043055D03*X053374Y042412D03*X01294Y040786D03*
X013706Y040143D03*X014472Y0395D03*X028277Y056545D03*X027511Y057188D03*
X026745Y057831D03*X046583Y069488D03*X046241Y068548D03*
X045899Y067609D03*X033536Y030755D03*X033878Y031694D03*X03422Y032634D03*
X070995Y033193D03*X071337Y034132D03*X071679Y035072D03*X009124Y06705D03*
X008782Y06611D03*X00844Y065171D03*X056101Y079965D03*Y076965D03*
X06067Y021639D03*X061446Y024536D03*X024018Y020278D03*Y023278D03*
X019449Y078604D03*X018673Y075706D03*X053976Y079259D03*
X053871Y076261D03*X064561Y021717D03*X065337Y024614D03*X02622Y020791D03*
X026325Y023789D03*X015558Y078526D03*X014782Y075628D03*
X064219Y078521D03*X063698Y075567D03*X051009Y026094D03*
X053963Y026615D03*X0159Y021722D03*X016421Y024676D03*X02911Y074149D03*
X026156Y073628D03*X05925Y086182D03*X062246Y086025D03*X05909Y015951D03*
X056135Y016472D03*X020869Y01406D03*X017873Y014217D03*X021029Y084292D03*
X023984Y083771D03*X01775Y013D03*X020728Y012634D03*X056Y015D03*
X058978Y014634D03*X059594Y084879D03*X062572Y084514D03*X05893Y017366D03*
X055975Y017887D03*X020525Y015363D03*X017547Y015729D03*
X021189Y082877D03*X024144Y082356D03*X064066Y089D03*X067044Y088634D03*
X054463Y013496D03*X051474Y013235D03*X016053Y011243D03*
X013075Y011608D03*X025656Y086746D03*X028645Y087008D03*
X063122Y090222D03*X066118Y090065D03*X055428Y012079D03*
X052439Y011817D03*X016997Y01002D03*X014001Y010177D03*X024691Y088164D03*
X02768Y088425D03*X054502Y087498D03*X0571Y088998D03*X062036Y013931D03*
X059081Y01341D03*X025617Y012745D03*X023019Y011245D03*X018083Y086312D03*
X021038Y086833D03*X057743Y089897D03*X059671Y092195D03*
X060142Y012163D03*X058213Y009865D03*X022376Y010345D03*
X020448Y008047D03*X019977Y08808D03*X021906Y090378D03*X065482Y080673D03*
X063635Y083037D03*X053265Y021565D03*X055386Y019444D03*X014637Y01957D03*
X016484Y017206D03*X027462Y079102D03*X024863Y080602D03*X058206Y08531D03*
X055487Y086577D03*X060443Y016507D03*X063041Y015007D03*
X021913Y014933D03*X024632Y013665D03*X019676Y083736D03*
X017078Y085236D03*X050756Y083332D03*X047937Y082306D03*
X067297Y017534D03*X070116Y01856D03*X029362Y016911D03*X032182Y017937D03*
X012822Y082708D03*X010003Y081682D03*X05115Y081239D03*X05265Y083837D03*
X066834Y019233D03*X065113Y016776D03*X028969Y019004D03*
X027469Y016406D03*X013285Y081009D03*X015006Y083467D03*
X044757Y082879D03*X047055Y08095D03*X073357Y018139D03*X071059Y020068D03*
X035362Y017364D03*X033064Y019292D03*X006762Y082103D03*X00906Y080175D03*
X045748Y087877D03*X048693Y087304D03*X073357Y013804D03*
X070369Y014066D03*X034371Y012366D03*X031426Y012938D03*
X006762Y086438D03*X00975Y086177D03*X051977Y089068D03*X052498Y086113D03*
X067465Y012331D03*X065038Y014095D03*X028141Y011175D03*
X027621Y014129D03*X012654Y087911D03*X015081Y086148D03*X04209Y086442D03*
X044486Y084636D03*X07483Y014099D03*X073804Y016918D03*X038029Y013801D03*
X035633Y015606D03*X005289Y086144D03*X006315Y083324D03*
X059763Y079586D03*X059397Y076608D03*X057769Y021802D03*
X058795Y024621D03*X020356Y020657D03*X020722Y023634D03*
X022427Y078259D03*X021401Y07544D03*X058332Y079219D03*Y076219D03*
X065361Y029966D03*X06364Y027508D03*X021787Y021024D03*Y024024D03*
X014758Y070277D03*X016479Y072734D03*X06111Y079628D03*X061631Y076673D03*
X055699Y021765D03*X054923Y024663D03*X019009Y020615D03*
X018488Y023569D03*X024539Y078275D03*X025315Y075377D03*
X053703Y085941D03*X064511Y015333D03*X026416Y014302D03*
X015608Y084909D03*
M02*