M48
FMAT,2
INCH,LZ
T1C0.0280
T2C0.0400
T3C0.0470
T4C0.0860
%
T1
X015976Y015336
X014983Y015458
X013991Y01558
X012998Y015702
X012633Y012724
X013625Y012602
X014618Y01248
X01561Y012358
X064143Y084907
X065136Y084785
X066128Y084663
X067121Y084541
X067486Y087519
X066494Y087641
X065501Y087762
X064509Y087884
X050619Y0626
X04869Y060302
X068543Y040913
X071Y042634
X0295Y037643
X031429Y039941
X011576Y05933
X009119Y057609
X049335Y064402
X048458Y061534
X069156Y038863
X071084Y041161
X030784Y03584
X031661Y038709
X010963Y06138
X009035Y059082
X047752Y057288
X048273Y054334
X071295Y045917
X071556Y048905
X032367Y042954
X031846Y045909
X008824Y054326
X008563Y051337
X040556Y035309
X040556Y038309
X044149Y058921
X044149Y055921
X044275Y054472
X044275Y051472
X042592Y054965
X042592Y051965
X04053Y04034
X04053Y04334
X039074Y043148
X038553Y046102
X045556Y05142
X046076Y048465
X044974Y041181
X046Y044
X0395Y054
X0395Y051
X041667Y034383
X041667Y037383
X04255Y059438
X04255Y056438
X041855Y039709
X041855Y042709
X049209Y057923
X049157Y054923
X03091Y04232
X030962Y045319
X072457Y066905
X072978Y063951
X046632Y036573
X047408Y039471
X007662Y033337
X007141Y036292
X033487Y06367
X032711Y060772
X071096Y067388
X071253Y064393
X047768Y036152
X048794Y038971
X009023Y032854
X008866Y03585
X032351Y06409
X031325Y061271
X069802Y076968
X068875Y074115
X010317Y023275
X011244Y026128
X048349Y024957
X04861Y027946
X03177Y075286
X031509Y072297
X0355Y052598
X037Y05
X037Y052848
X0385Y05025
X051346Y032701
X051346Y035701
X028773Y067541
X028773Y064541
X049915Y031595
X049915Y034595
X030204Y068647
X030204Y065647
X073062Y06132
X073062Y05832
X049719Y044762
X049198Y047716
X007057Y038923
X007057Y041923
X0304Y055481
X030921Y052526
X071884Y061627
X071884Y058627
X008235Y038616
X008235Y041616
X046674Y064224
X046398Y065185
X046123Y066147
X072179Y038289
X072179Y037289
X072179Y036289
X033445Y036018
X033721Y035057
X033996Y034096
X00794Y061954
X00794Y062954
X00794Y063954
X071163Y07013
X071505Y06919
X071847Y068251
X048489Y033235
X048147Y034174
X047805Y035114
X008956Y030113
X008614Y031052
X008272Y031992
X03163Y067008
X031972Y066068
X032314Y065129
X067719Y079828
X067823Y078834
X067928Y077839
X0124Y020414
X012296Y021409
X012191Y022403
X067142Y027393
X066202Y027735
X065263Y028077
X012977Y07285
X013917Y072508
X014856Y072166
X063088Y024999
X062665Y025906
X062243Y026812
X017031Y075243
X017454Y074337
X017876Y073431
X060516Y025228
X060016Y026094
X059516Y02696
X019603Y075015
X020103Y074149
X020603Y073283
X056874Y026118
X055975Y026557
X055076Y026995
X023245Y074124
X024144Y073686
X025043Y073248
X051135Y023926
X050369Y024569
X049603Y025212
X028984Y076316
X02975Y075674
X030516Y075031
X047125Y071433
X046625Y072299
X046125Y073165
X032994Y028809
X033494Y027943
X033994Y027077
X071163Y030569
X071505Y029629
X071847Y028689
X008956Y069674
X008614Y070614
X008272Y071553
X0478Y066485
X047852Y065487
X047905Y064488
X070579Y036499
X070579Y037499
X070579Y038499
X032319Y033757
X032266Y034756
X032214Y035754
X00954Y063743
X00954Y062743
X00954Y061743
X075419Y068012
X075246Y068997
X075072Y069982
X043359Y032161
X043859Y031295
X044359Y030429
X0047Y032231
X004873Y031246
X005047Y030261
X03676Y068082
X03626Y068948
X03576Y069814
X071084Y077902
X071032Y078901
X07098Y0799
X009035Y02234
X009087Y021342
X009139Y020343
X046216Y022667
X046716Y021801
X047216Y020935
X033903Y077576
X033403Y078442
X032903Y079308
X048572Y074638
X048865Y073682
X049157Y072726
X031547Y025604
X031254Y026561
X030962Y027517
X056733Y084173
X055826Y084596
X05492Y085018
X061591Y017419
X062457Y016919
X063323Y016419
X023386Y016069
X024293Y015647
X025199Y015224
X018528Y082824
X017662Y083324
X016796Y083824
X055554Y092318
X055554Y091318
X055554Y090318
X06182Y010042
X061994Y011027
X062167Y012012
X024565Y007925
X024565Y008925
X024565Y009925
X018299Y090201
X018125Y089216
X017952Y088231
X053197Y091981
X053197Y090981
X053197Y089981
X064765Y00996
X064852Y010956
X06494Y011953
X026921Y008261
X026921Y009261
X026921Y010261
X015354Y090282
X015266Y089286
X015179Y08829
X04921Y090604
X049383Y089619
X049557Y088634
X069569Y011079
X069569Y012079
X069569Y013079
X030909Y009639
X030736Y010623
X030562Y011608
X01055Y089164
X01055Y088164
X01055Y087164
X043253Y088033
X043812Y087203
X044371Y086374
X077211Y013751
X076869Y014691
X076527Y015631
X036866Y01221
X036307Y013039
X035748Y013868
X002908Y086491
X00325Y085551
X003592Y084612
X07049Y028047
X06999Y028914
X06949Y02978
X009629Y072195
X010129Y071329
X010629Y070463
X045664Y063425
X043366Y061496
X074047Y038727
X076345Y040656
X034455Y036818
X036753Y038746
X006072Y061515
X003774Y059587
X044586Y067171
X044586Y064171
X073467Y034891
X074493Y03771
X035533Y033072
X035533Y036072
X006652Y065352
X005626Y062533
X050615Y067676
X05193Y064979
X069506Y034721
X06848Y037541
X029504Y032567
X028189Y035263
X010613Y065521
X011639Y062702
X048947Y067633
X050667Y065176
X068243Y034784
X067217Y037604
X031172Y03261
X029452Y035067
X011876Y065458
X012902Y062639
X067785Y069926
X068811Y067107
X012334Y030316
X011308Y033136
X068717Y065773
X066749Y063509
X051437Y037095
X053366Y039393
X011402Y03447
X01337Y036734
X028682Y063148
X026753Y06085
X060375Y062756
X063329Y062235
X019744Y037487
X01679Y038008
X05515Y036273
X057869Y037541
X024969Y063969
X02225Y062701
X064664Y069841
X067465Y070916
X015362Y030429
X012561Y029354
X053088Y06274
X05267Y059769
X067044Y04056
X067044Y04356
X027031Y037503
X027449Y040473
X013075Y059683
X013075Y056683
X054511Y056667
X057465Y056146
X064982Y047179
X062027Y046658
X025504Y043981
X022506Y043876
X015137Y053064
X018092Y053584
X061826Y057685
X064645Y058711
X057027Y045075
X054763Y043107
X018293Y042558
X015474Y041532
X023092Y055168
X025356Y057136
X051382Y068482
X054006Y067028
X067465Y031776
X064465Y031776
X028737Y031761
X026113Y033215
X012654Y068467
X015654Y068467
X047175Y062589
X047644Y059625
X073067Y039671
X074788Y042129
X032944Y037654
X032475Y040617
X007052Y060571
X005331Y058114
X078029Y068896
X077559Y071859
X042817Y030502
X044317Y027903
X00209Y031347
X00256Y028384
X037302Y069741
X035802Y072339
X07291Y078745
X071884Y081564
X007209Y021498
X008235Y018679
X045166Y021229
X046887Y018772
X034953Y079014
X033232Y081471
X051253Y031465
X054208Y031986
X028866Y068778
X025911Y068257
X077095Y064367
X075167Y066665
X042901Y036852
X044401Y034254
X003024Y035876
X004952Y033577
X037218Y063391
X035718Y065989
X074493Y07544
X072565Y077738
X005626Y024802
X007554Y022504
X07462Y074556
X072691Y072258
X046927Y028408
X045901Y025589
X005499Y025686
X007428Y027984
X033192Y071834
X034218Y074653
X050403Y027045
X052524Y029166
X029716Y073198
X027595Y071077
X05265Y035785
X05265Y032785
X027469Y064457
X027469Y067457
X067454Y076962
X066728Y074051
X012665Y02328
X013391Y026191
X067422Y066732
X066696Y069643
X012697Y033511
X013423Y0306
X073374Y067765
X073374Y070765
X006745Y032478
X006745Y029478
X070158Y068222
X069433Y071133
X009961Y03202
X010686Y029109
X046111Y034426
X047137Y031607
X034008Y065816
X032982Y068636
X044485Y023812
X047474Y024074
X035634Y076431
X032645Y076169
X07685Y067717
X076589Y070706
X045477Y032779
X046253Y029881
X003269Y032525
X00353Y029537
X034642Y067463
X033866Y070361
X06938Y079733
X067296Y081891
X010739Y02051
X012823Y018352
X051198Y022222
X048244Y022743
X028921Y078021
X031875Y0775
X045517Y070832
X043548Y073096
X072726Y027693
X07568Y027172
X034602Y029411
X03657Y027147
X007393Y07255
X004439Y073071
X045033Y069569
X042875Y071653
X035086Y030673
X037244Y028589
X070964Y026786
X073862Y026009
X009155Y073457
X006257Y074233
X052398Y051139
X052398Y054139
X027721Y049103
X027721Y046103
X049662Y071631
X046989Y070269
X068702Y030394
X071Y032323
X030457Y028611
X03313Y029973
X011417Y069848
X009119Y06792
X076422Y034579
X074493Y03228
X073483Y033248
X075411Y035546
X003697Y065664
X005626Y067962
X006636Y066994
X004708Y064696
X06753Y029959
X068307Y027062
X012589Y070283
X011812Y073181
X066791Y034595
X06627Y03755
X013328Y065647
X013849Y062693
X053035Y066363
X05435Y063666
X027084Y03388
X025769Y036576
X050369Y076303
X05063Y073315
X02975Y023939
X029489Y026928
X041681Y071173
X043875Y069127
X038438Y029069
X036244Y031115
X043384Y067968
X04307Y064985
X036735Y032274
X037049Y035258
X047972Y072468
X047044Y075321
X074103Y030934
X077103Y030934
X032147Y027775
X033074Y024922
X006016Y069309
X003016Y069309
X064898Y075125
X066443Y077696
X05244Y022727
X05394Y025325
X015221Y025118
X013676Y022546
X027679Y077516
X026179Y074918
X065686Y064087
X062732Y064608
X054207Y03909
X057196Y039351
X014433Y036156
X017387Y035635
X025912Y061153
X022923Y060892
X057196Y060352
X054196Y060405
X062487Y041497
X065487Y041497
X022923Y03989
X025923Y039838
X017632Y058745
X014632Y058745
X056312Y058332
X043433Y082953
X017051Y033765
X062309Y075125
X062984Y078048
X056485Y023636
X058206Y026094
X01781Y025118
X017135Y022195
X023634Y076606
X021913Y074149
X05705Y075634
X057364Y078618
X063761Y023274
X064282Y026228
X023069Y024608
X022755Y021625
X016358Y076969
X015837Y074014
X054628Y074199
X055046Y07717
X067021Y023322
X066244Y02622
X025491Y026044
X025073Y023073
X013098Y07692
X013875Y074023
X04558Y086193
X07584Y016624
X034539Y014049
X004279Y083618
X050315Y087751
X067886Y01372
X029804Y012492
X012233Y086522
X021386Y050473
X020386Y050473
X019386Y050473
X018386Y050473
X017386Y050473
X016386Y050473
X015386Y050473
X015386Y047473
X016386Y047473
X017386Y047473
X018386Y047473
X019386Y047473
X020386Y047473
X021386Y047473
X058733Y049769
X059733Y049769
X060733Y049769
X061733Y049769
X062733Y049769
X063733Y049769
X064733Y049769
X064733Y052769
X063733Y052769
X062733Y052769
X061733Y052769
X060733Y052769
X059733Y052769
X058733Y052769
X047263Y083879
X071652Y017298
X032856Y016364
X008467Y082945
X049283Y084342
X06919Y016729
X030836Y015901
X010929Y083513
X041821Y050587
X041479Y049648
X041137Y048708
X040795Y047768
X040452Y046828
X04011Y045889
X039768Y044949
X042588Y043923
X04293Y044863
X043272Y045802
X043614Y046742
X043956Y047682
X044298Y048622
X04464Y049561
X053901Y017481
X052909Y017603
X051916Y017725
X050924Y017846
X050558Y014869
X051551Y014747
X052543Y014625
X053536Y014503
X026218Y082762
X02721Y08264
X028203Y082518
X029195Y082396
X029561Y085374
X028568Y085496
X027576Y085618
X026583Y085739
X060839Y065862
X060839Y066862
X060839Y067862
X060839Y068862
X060839Y069862
X060839Y070862
X060839Y071862
X060839Y072862
X057839Y072862
X057839Y071862
X057839Y070862
X057839Y069862
X057839Y068862
X057839Y067862
X057839Y066862
X057839Y065862
X057936Y035774
X057936Y034774
X057936Y033774
X057936Y032774
X057936Y031774
X057936Y030774
X057936Y029774
X057936Y028774
X060936Y028774
X060936Y029774
X060936Y030774
X060936Y031774
X060936Y032774
X060936Y033774
X060936Y034774
X060936Y035774
X01928Y034381
X01928Y033381
X01928Y032381
X01928Y031381
X01928Y030381
X01928Y029381
X01928Y028381
X01928Y027381
X02228Y027381
X02228Y028381
X02228Y029381
X02228Y030381
X02228Y031381
X02228Y032381
X02228Y033381
X02228Y034381
X022183Y064469
X022183Y065469
X022183Y066469
X022183Y067469
X022183Y068469
X022183Y069469
X022183Y070469
X022183Y071469
X019183Y071469
X019183Y070469
X019183Y069469
X019183Y068469
X019183Y067469
X019183Y066469
X019183Y065469
X019183Y064469
X060731Y089065
X060731Y090065
X060731Y091065
X057154Y013163
X057154Y012163
X057154Y011163
X019388Y011177
X019388Y010177
X019388Y009177
X022965Y08708
X022965Y08808
X022965Y08908
X052271Y078179
X051801Y079062
X051332Y079945
X0683Y024534
X068559Y023569
X068818Y022603
X027848Y022064
X028318Y021181
X028787Y020298
X011819Y075708
X01156Y076674
X011301Y07764
X048301Y076484
X047895Y077397
X047488Y078311
X070863Y025159
X071037Y024175
X071211Y02319
X031818Y023759
X032224Y022845
X032631Y021932
X009256Y075083
X009082Y076068
X008908Y077053
X049783Y079772
X049283Y080638
X048783Y081504
X067849Y020941
X068349Y020075
X068849Y019209
X030336Y020471
X030836Y019605
X031336Y018739
X01227Y079301
X01177Y080167
X01127Y081033
X046253Y079291
X045487Y079934
X044721Y080577
X071244Y021854
X07201Y021212
X072776Y020569
X033866Y020951
X034632Y020309
X035398Y019666
X008875Y078388
X008109Y079031
X007343Y079674
X050229Y0506
X050229Y0516
X02989Y049642
X02989Y048642
X05446Y08148
X022432Y018434
X061278Y08169
X06054Y019669
X023947Y037836
X016919Y080175
X057911Y081901
X025925Y018981
X064477Y039014
X023042Y080049
X076766Y038509
X003353Y061733
X063214Y034974
X074493Y029166
X017494Y056178
X005626Y071077
X004552Y079031
X062877Y070895
X024999Y029166
X068494Y054596
X067612Y055065
X011624Y045647
X012507Y045177
X055596Y062204
X019191Y018434
X049244Y020511
X030875Y079731
X058784Y058441
X05978Y058528
X060776Y058615
X061772Y058703
X061511Y061691
X060514Y061604
X059518Y061517
X058522Y06143
X059792Y043248
X058792Y043248
X057792Y043248
X056792Y043248
X056792Y040248
X057792Y040248
X058792Y040248
X059792Y040248
X021335Y041802
X020339Y041714
X019343Y041627
X018347Y04154
X018608Y038551
X019605Y038639
X020601Y038726
X021597Y038813
X020327Y056994
X021327Y056994
X022327Y056994
X023327Y056994
X023327Y059994
X022327Y059994
X021327Y059994
X020327Y059994
X063719Y044233
X016414Y065339
X075588Y02159
X027889Y050749
X024935Y050228
X052229Y049494
X055184Y050015
X056126Y048515
X059126Y048515
X023993Y051727
X020993Y051727
X056903Y052847
X057164Y049858
X023216Y047396
X022955Y050384
X060108Y053928
X063108Y053928
X020011Y046315
X017011Y046315
X066791Y056817
X063837Y057338
X013328Y043426
X016282Y042905
X066665Y058395
X06962Y057874
X013454Y041847
X010499Y042368
X065444Y055509
X062444Y055509
X014675Y044734
X017675Y044734
X043854Y026262
X036265Y073981
X06342Y019669
X019949Y080428
X057415Y019669
X015909Y061404
X063172Y030387
X024438Y070066
X055596Y030344
X017045Y069632
X070989Y0837
X071355Y086678
X00913Y016542
X008764Y013565
X032896Y082453
X033261Y085431
X047223Y017789
X046858Y014812
X06991Y087644
X067903Y089873
X010209Y012599
X012216Y010369
X031508Y086172
X0295Y088402
X048611Y01407
X050619Y011841
X055386Y067886
X056886Y065288
X058795Y037331
X061795Y037331
X024733Y032357
X023233Y034955
X021324Y062912
X018324Y062912
X063301Y066612
X037625Y017929
X024368Y041834
X055304Y071242
X016666Y03005
X062435Y087207
X059457Y087572
X024228Y085384
X02125Y08575
X072599Y083205
X00752Y017037
X044773Y074488
X035346Y025755
X042802Y063172
X037317Y037071
X0745Y093135
X005Y007
X006Y093
X075Y007
X075125Y071758
X004994Y028485
X060243Y057128
X060243Y055628
X019876Y043114
X019876Y044614
X059048Y046617
X059048Y045117
X021071Y053626
X021071Y055126
X055702Y037786
X057112Y038299
X024417Y062457
X023007Y061944
X03875Y090778
X03875Y087778
X062993Y063442
X061504Y063624
X017126Y036801
X018615Y036618
X0519Y07137
X053534Y068854
X055527Y032334
X057027Y034932
X028219Y028873
X026585Y031389
X024592Y067909
X023092Y065311
X051808Y073231
X051495Y076214
X056396Y035563
X053798Y034063
X028311Y027012
X028624Y024028
X023723Y064679
X026321Y066179
X056293Y063874
X059289Y064031
X023695Y03611
X020711Y036424
X060978Y041439
X062246Y03872
X019141Y058804
X017873Y061523
X051993Y063554
X067281Y039298
X028126Y036689
X012838Y060945
X069106Y084115
X06935Y0861
X037521Y058454
X037Y0555
X040908Y05909
X038862Y056896
X037696Y044776
X034877Y045802
X047046Y049286
X05Y048765
X04142Y056173
X045309Y055247
X039709Y039456
X042991Y039204
X038846Y047222
X037346Y047222
X04593Y047332
X047407Y047593
X069906Y066329
X049915Y036489
X010213Y033914
X030204Y063754
X054839Y053862
X02528Y046381
X041Y052
X044Y043
X052987Y055606
X052987Y056606
X052987Y057606
X066602Y047979
X066602Y046979
X066602Y045979
X027062Y045023
X027062Y044023
X027062Y043023
X013517Y052264
X013517Y053264
X013517Y054264
X03095Y08205
X031194Y084035
X011094Y016335
X01085Y01435
X049144Y018035
X0489Y01605
X050932Y055607
X050967Y056606
X051002Y057606
X069232Y047464
X069232Y046464
X069232Y045464
X029187Y044635
X029152Y043636
X029117Y042637
X010886Y052779
X010886Y053779
X010886Y054779
X06877Y06334
X068154Y062552
X067538Y061764
X050619Y0393
X051261Y040066
X051904Y040832
X011349Y036902
X011965Y03769
X012581Y038478
X0295Y060942
X028857Y060176
X028215Y05941
X068433Y073041
X067451Y072851
X06647Y07266
X011686Y027201
X012668Y027392
X013649Y027583
X049971Y029324
X050911Y029666
X051851Y030008
X030148Y070919
X029208Y070577
X028268Y070235
X072369Y062613
X073357Y062457
X074345Y0623
X04855Y040829
X047684Y041329
X046818Y041829
X00775Y03763
X006762Y037786
X005774Y037942
X031569Y059414
X032435Y058914
X033301Y058414
X070123Y074011
X071084Y073736
X072046Y07346
X009996Y026231
X009035Y026507
X008073Y026782
X04918Y029459
X048273Y029881
X047367Y030304
X030939Y070784
X031846Y070361
X032752Y069938
X04595Y061917
X045496Y061026
X045042Y060135
X072468Y041063
X07281Y042002
X073152Y042942
X034169Y038326
X034623Y039217
X035077Y040108
X007651Y05918
X007309Y05824
X006967Y0573
X050198Y060271
X05054Y059331
X050882Y058391
X069238Y042704
X068896Y043644
X068554Y044584
X029921Y039972
X029579Y040911
X029237Y041851
X010881Y057538
X011223Y056599
X011565Y055659
X048749Y0688
X049578Y069359
X050407Y069918
X03137Y031443
X030541Y030884
X029712Y030325
X069275Y033038
X068335Y03338
X067395Y033722
X010844Y067205
X011784Y066863
X012724Y066521
X070285Y059595
X070111Y060579
X069937Y061564
X050341Y043363
X049999Y042423
X049657Y041484
X009834Y040648
X010008Y039663
X010182Y038678
X029778Y05688
X03012Y057819
X030462Y058759
X052774Y075616
X052861Y07462
X052948Y073623
X027345Y024627
X027258Y025623
X027171Y026619
X055694Y074244
X056691Y074157
X057687Y074069
X024424Y025999
X023428Y026086
X022432Y026173
X06544Y073688
X064456Y073862
X063471Y074036
X014503Y026352
X015488Y026178
X016473Y026004
X060658Y076069
X060042Y075281
X059426Y074493
X019461Y024173
X020077Y024961
X020693Y025749
X067179Y059457
X066413Y0601
X065647Y060742
X051842Y043697
X052608Y043055
X053374Y042412
X01294Y040786
X013706Y040143
X014472Y0395
X028277Y056545
X027511Y057188
X026745Y057831
X046583Y069488
X046241Y068548
X045899Y067609
X033536Y030755
X033878Y031694
X03422Y032634
X070995Y033193
X071337Y034132
X071679Y035072
X009124Y06705
X008782Y06611
X00844Y065171
X056101Y079965
X056101Y076965
X06067Y021639
X061446Y024536
X024018Y020278
X024018Y023278
X019449Y078604
X018673Y075706
X053976Y079259
X053871Y076261
X064561Y021717
X065337Y024614
X02622Y020791
X026325Y023789
X015558Y078526
X014782Y075628
X064219Y078521
X063698Y075567
X051009Y026094
X053963Y026615
X0159Y021722
X016421Y024676
X02911Y074149
X026156Y073628
X05925Y086182
X062246Y086025
X05909Y015951
X056135Y016472
X020869Y01406
X017873Y014217
X021029Y084292
X023984Y083771
X01775Y013
X020728Y012634
X056Y015
X058978Y014634
X059594Y084879
X062572Y084514
X05893Y017366
X055975Y017887
X020525Y015363
X017547Y015729
X021189Y082877
X024144Y082356
X064066Y089
X067044Y088634
X054463Y013496
X051474Y013235
X016053Y011243
X013075Y011608
X025656Y086746
X028645Y087008
X063122Y090222
X066118Y090065
X055428Y012079
X052439Y011817
X016997Y01002
X014001Y010177
X024691Y088164
X02768Y088425
X054502Y087498
X0571Y088998
X062036Y013931
X059081Y01341
X025617Y012745
X023019Y011245
X018083Y086312
X021038Y086833
X057743Y089897
X059671Y092195
X060142Y012163
X058213Y009865
X022376Y010345
X020448Y008047
X019977Y08808
X021906Y090378
X065482Y080673
X063635Y083037
X053265Y021565
X055386Y019444
X014637Y01957
X016484Y017206
X027462Y079102
X024863Y080602
X058206Y08531
X055487Y086577
X060443Y016507
X063041Y015007
X021913Y014933
X024632Y013665
X019676Y083736
X017078Y085236
X050756Y083332
X047937Y082306
X067297Y017534
X070116Y01856
X029362Y016911
X032182Y017937
X012822Y082708
X010003Y081682
X05115Y081239
X05265Y083837
X066834Y019233
X065113Y016776
X028969Y019004
X027469Y016406
X013285Y081009
X015006Y083467
X044757Y082879
X047055Y08095
X073357Y018139
X071059Y020068
X035362Y017364
X033064Y019292
X006762Y082103
X00906Y080175
X045748Y087877
X048693Y087304
X073357Y013804
X070369Y014066
X034371Y012366
X031426Y012938
X006762Y086438
X00975Y086177
X051977Y089068
X052498Y086113
X067465Y012331
X065038Y014095
X028141Y011175
X027621Y014129
X012654Y087911
X015081Y086148
X04209Y086442
X044486Y084636
X07483Y014099
X073804Y016918
X038029Y013801
X035633Y015606
X005289Y086144
X006315Y083324
X059763Y079586
X059397Y076608
X057769Y021802
X058795Y024621
X020356Y020657
X020722Y023634
X022427Y078259
X021401Y07544
X058332Y079219
X058332Y076219
X065361Y029966
X06364Y027508
X021787Y021024
X021787Y024024
X014758Y070277
X016479Y072734
X06111Y079628
X061631Y076673
X055699Y021765
X054923Y024663
X019009Y020615
X018488Y023569
X024539Y078275
X025315Y075377
X053703Y085941
X064511Y015333
X026416Y014302
X015608Y084909
T2
X039252Y063844
X038731Y06089
X032346Y050309
X033846Y047711
X054797Y047642
X051842Y048163
T3
X075Y095
X073437Y095448
X076563Y095448
X006Y095
X004437Y095448
X007563Y095448
X075Y005
X076563Y004552
X073437Y004552
X005Y005
X006563Y004552
X003437Y004552
T4
X07205Y09795
X07795Y09795
X00305Y09795
X00895Y09795
X07795Y00205
X07205Y00205
X00795Y00205
X00205Y00205
M30
